<mxfile host="Electron" modified="2023-07-04T11:45:03.037Z" agent="Mozilla/5.0 (Macintosh; Intel Mac OS X 10_15_7) AppleWebKit/537.36 (KHTML, like Gecko) draw.io/21.5.1 Chrome/112.0.5615.204 Electron/24.6.0 Safari/537.36" etag="z4M6FtkAtPFmSr4AlaoH" version="21.5.1" type="device">
  <diagram name="Page-1" id="rl8oAD7bQT2aEg0NpIuq">
    <mxGraphModel dx="1376" dy="799" grid="1" gridSize="10" guides="1" tooltips="1" connect="1" arrows="1" fold="1" page="1" pageScale="1" pageWidth="827" pageHeight="1169" math="0" shadow="0">
      <root>
        <mxCell id="0" />
        <mxCell id="1" parent="0" />
        <mxCell id="bYp1psGdMtTp_El-fFPe-50" value="" style="group" parent="1" vertex="1" connectable="0">
          <mxGeometry x="10" y="570" width="580" height="640" as="geometry" />
        </mxCell>
        <mxCell id="bYp1psGdMtTp_El-fFPe-48" value="" style="group" parent="bYp1psGdMtTp_El-fFPe-50" vertex="1" connectable="0">
          <mxGeometry y="60" width="580" height="580" as="geometry" />
        </mxCell>
        <mxCell id="bYp1psGdMtTp_El-fFPe-32" value="" style="whiteSpace=wrap;html=1;aspect=fixed;" parent="bYp1psGdMtTp_El-fFPe-48" vertex="1">
          <mxGeometry x="-10" y="-20" width="580" height="580" as="geometry" />
        </mxCell>
        <mxCell id="bYp1psGdMtTp_El-fFPe-33" value="" style="rounded=0;whiteSpace=wrap;html=1;" parent="bYp1psGdMtTp_El-fFPe-48" vertex="1">
          <mxGeometry x="25" y="40" width="360" height="220" as="geometry" />
        </mxCell>
        <mxCell id="bYp1psGdMtTp_El-fFPe-35" value="&lt;font style=&quot;font-size: 12px;&quot;&gt;Receives &lt;span style=&quot;border: 0px solid rgb(217, 217, 227); box-sizing: border-box; --tw-border-spacing-x: 0; --tw-border-spacing-y: 0; --tw-translate-x: 0; --tw-translate-y: 0; --tw-rotate: 0; --tw-skew-x: 0; --tw-skew-y: 0; --tw-scale-x: 1; --tw-scale-y: 1; --tw-pan-x: ; --tw-pan-y: ; --tw-pinch-zoom: ; --tw-scroll-snap-strictness: proximity; --tw-gradient-from-position: ; --tw-gradient-via-position: ; --tw-gradient-to-position: ; --tw-ordinal: ; --tw-slashed-zero: ; --tw-numeric-figure: ; --tw-numeric-spacing: ; --tw-numeric-fraction: ; --tw-ring-inset: ; --tw-ring-offset-width: 0px; --tw-ring-offset-color: #fff; --tw-ring-color: rgba(69,89,164,.5); --tw-ring-offset-shadow: 0 0 transparent; --tw-ring-shadow: 0 0 transparent; --tw-shadow: 0 0 transparent; --tw-shadow-colored: 0 0 transparent; --tw-blur: ; --tw-brightness: ; --tw-contrast: ; --tw-grayscale: ; --tw-hue-rotate: ; --tw-invert: ; --tw-saturate: ; --tw-sepia: ; --tw-drop-shadow: ; --tw-backdrop-blur: ; --tw-backdrop-brightness: ; --tw-backdrop-contrast: ; --tw-backdrop-grayscale: ; --tw-backdrop-hue-rotate: ; --tw-backdrop-invert: ; --tw-backdrop-opacity: ; --tw-backdrop-saturate: ; --tw-backdrop-sepia: ; font-family: &amp;quot;Söhne Mono&amp;quot;, Monaco, &amp;quot;Andale Mono&amp;quot;, &amp;quot;Ubuntu Mono&amp;quot;, monospace; text-align: left;&quot; class=&quot;hljs-keyword&quot;&gt;and&lt;/span&gt;&lt;span style=&quot;font-family: &amp;quot;Söhne Mono&amp;quot;, Monaco, &amp;quot;Andale Mono&amp;quot;, &amp;quot;Ubuntu Mono&amp;quot;, monospace; text-align: left;&quot;&gt; processes requests &lt;/span&gt;&lt;span style=&quot;border: 0px solid rgb(217, 217, 227); box-sizing: border-box; --tw-border-spacing-x: 0; --tw-border-spacing-y: 0; --tw-translate-x: 0; --tw-translate-y: 0; --tw-rotate: 0; --tw-skew-x: 0; --tw-skew-y: 0; --tw-scale-x: 1; --tw-scale-y: 1; --tw-pan-x: ; --tw-pan-y: ; --tw-pinch-zoom: ; --tw-scroll-snap-strictness: proximity; --tw-gradient-from-position: ; --tw-gradient-via-position: ; --tw-gradient-to-position: ; --tw-ordinal: ; --tw-slashed-zero: ; --tw-numeric-figure: ; --tw-numeric-spacing: ; --tw-numeric-fraction: ; --tw-ring-inset: ; --tw-ring-offset-width: 0px; --tw-ring-offset-color: #fff; --tw-ring-color: rgba(69,89,164,.5); --tw-ring-offset-shadow: 0 0 transparent; --tw-ring-shadow: 0 0 transparent; --tw-shadow: 0 0 transparent; --tw-shadow-colored: 0 0 transparent; --tw-blur: ; --tw-brightness: ; --tw-contrast: ; --tw-grayscale: ; --tw-hue-rotate: ; --tw-invert: ; --tw-saturate: ; --tw-sepia: ; --tw-drop-shadow: ; --tw-backdrop-blur: ; --tw-backdrop-brightness: ; --tw-backdrop-contrast: ; --tw-backdrop-grayscale: ; --tw-backdrop-hue-rotate: ; --tw-backdrop-invert: ; --tw-backdrop-opacity: ; --tw-backdrop-saturate: ; --tw-backdrop-sepia: ; font-family: &amp;quot;Söhne Mono&amp;quot;, Monaco, &amp;quot;Andale Mono&amp;quot;, &amp;quot;Ubuntu Mono&amp;quot;, monospace; text-align: left;&quot; class=&quot;hljs-keyword&quot;&gt;from&lt;/span&gt;&lt;span style=&quot;font-family: &amp;quot;Söhne Mono&amp;quot;, Monaco, &amp;quot;Andale Mono&amp;quot;, &amp;quot;Ubuntu Mono&amp;quot;, monospace; text-align: left;&quot;&gt; Frontend  &lt;/span&gt;&lt;/font&gt;" style="rounded=0;whiteSpace=wrap;html=1;" parent="bYp1psGdMtTp_El-fFPe-48" vertex="1">
          <mxGeometry x="35" y="60" width="120" height="70" as="geometry" />
        </mxCell>
        <mxCell id="bYp1psGdMtTp_El-fFPe-36" value="Handles &lt;span style=&quot;border: 0px solid rgb(217, 217, 227); box-sizing: border-box; --tw-border-spacing-x: 0; --tw-border-spacing-y: 0; --tw-translate-x: 0; --tw-translate-y: 0; --tw-rotate: 0; --tw-skew-x: 0; --tw-skew-y: 0; --tw-scale-x: 1; --tw-scale-y: 1; --tw-pan-x: ; --tw-pan-y: ; --tw-pinch-zoom: ; --tw-scroll-snap-strictness: proximity; --tw-gradient-from-position: ; --tw-gradient-via-position: ; --tw-gradient-to-position: ; --tw-ordinal: ; --tw-slashed-zero: ; --tw-numeric-figure: ; --tw-numeric-spacing: ; --tw-numeric-fraction: ; --tw-ring-inset: ; --tw-ring-offset-width: 0px; --tw-ring-offset-color: #fff; --tw-ring-color: rgba(69,89,164,.5); --tw-ring-offset-shadow: 0 0 transparent; --tw-ring-shadow: 0 0 transparent; --tw-shadow: 0 0 transparent; --tw-shadow-colored: 0 0 transparent; --tw-blur: ; --tw-brightness: ; --tw-contrast: ; --tw-grayscale: ; --tw-hue-rotate: ; --tw-invert: ; --tw-saturate: ; --tw-sepia: ; --tw-drop-shadow: ; --tw-backdrop-blur: ; --tw-backdrop-brightness: ; --tw-backdrop-contrast: ; --tw-backdrop-grayscale: ; --tw-backdrop-hue-rotate: ; --tw-backdrop-invert: ; --tw-backdrop-opacity: ; --tw-backdrop-saturate: ; --tw-backdrop-sepia: ; font-family: &amp;quot;Söhne Mono&amp;quot;, Monaco, &amp;quot;Andale Mono&amp;quot;, &amp;quot;Ubuntu Mono&amp;quot;, monospace; font-size: 14px; text-align: left;&quot; class=&quot;hljs-keyword&quot;&gt;user&lt;/span&gt;&lt;span style=&quot;font-family: &amp;quot;Söhne Mono&amp;quot;, Monaco, &amp;quot;Andale Mono&amp;quot;, &amp;quot;Ubuntu Mono&amp;quot;, monospace; font-size: 14px; text-align: left;&quot;&gt; authentication &lt;/span&gt;&lt;span style=&quot;border: 0px solid rgb(217, 217, 227); box-sizing: border-box; --tw-border-spacing-x: 0; --tw-border-spacing-y: 0; --tw-translate-x: 0; --tw-translate-y: 0; --tw-rotate: 0; --tw-skew-x: 0; --tw-skew-y: 0; --tw-scale-x: 1; --tw-scale-y: 1; --tw-pan-x: ; --tw-pan-y: ; --tw-pinch-zoom: ; --tw-scroll-snap-strictness: proximity; --tw-gradient-from-position: ; --tw-gradient-via-position: ; --tw-gradient-to-position: ; --tw-ordinal: ; --tw-slashed-zero: ; --tw-numeric-figure: ; --tw-numeric-spacing: ; --tw-numeric-fraction: ; --tw-ring-inset: ; --tw-ring-offset-width: 0px; --tw-ring-offset-color: #fff; --tw-ring-color: rgba(69,89,164,.5); --tw-ring-offset-shadow: 0 0 transparent; --tw-ring-shadow: 0 0 transparent; --tw-shadow: 0 0 transparent; --tw-shadow-colored: 0 0 transparent; --tw-blur: ; --tw-brightness: ; --tw-contrast: ; --tw-grayscale: ; --tw-hue-rotate: ; --tw-invert: ; --tw-saturate: ; --tw-sepia: ; --tw-drop-shadow: ; --tw-backdrop-blur: ; --tw-backdrop-brightness: ; --tw-backdrop-contrast: ; --tw-backdrop-grayscale: ; --tw-backdrop-hue-rotate: ; --tw-backdrop-invert: ; --tw-backdrop-opacity: ; --tw-backdrop-saturate: ; --tw-backdrop-sepia: ; font-family: &amp;quot;Söhne Mono&amp;quot;, Monaco, &amp;quot;Andale Mono&amp;quot;, &amp;quot;Ubuntu Mono&amp;quot;, monospace; font-size: 14px; text-align: left;&quot; class=&quot;hljs-keyword&quot;&gt;and&lt;/span&gt;&lt;span style=&quot;font-family: &amp;quot;Söhne Mono&amp;quot;, Monaco, &amp;quot;Andale Mono&amp;quot;, &amp;quot;Ubuntu Mono&amp;quot;, monospace; font-size: 14px; text-align: left;&quot;&gt; registration&lt;/span&gt;" style="whiteSpace=wrap;html=1;rounded=0;" parent="bYp1psGdMtTp_El-fFPe-48" vertex="1">
          <mxGeometry x="205" y="60" width="130" height="80" as="geometry" />
        </mxCell>
        <mxCell id="bYp1psGdMtTp_El-fFPe-37" value="Communicates &lt;span style=&quot;border: 0px solid rgb(217, 217, 227); box-sizing: border-box; --tw-border-spacing-x: 0; --tw-border-spacing-y: 0; --tw-translate-x: 0; --tw-translate-y: 0; --tw-rotate: 0; --tw-skew-x: 0; --tw-skew-y: 0; --tw-scale-x: 1; --tw-scale-y: 1; --tw-pan-x: ; --tw-pan-y: ; --tw-pinch-zoom: ; --tw-scroll-snap-strictness: proximity; --tw-gradient-from-position: ; --tw-gradient-via-position: ; --tw-gradient-to-position: ; --tw-ordinal: ; --tw-slashed-zero: ; --tw-numeric-figure: ; --tw-numeric-spacing: ; --tw-numeric-fraction: ; --tw-ring-inset: ; --tw-ring-offset-width: 0px; --tw-ring-offset-color: #fff; --tw-ring-color: rgba(69,89,164,.5); --tw-ring-offset-shadow: 0 0 transparent; --tw-ring-shadow: 0 0 transparent; --tw-shadow: 0 0 transparent; --tw-shadow-colored: 0 0 transparent; --tw-blur: ; --tw-brightness: ; --tw-contrast: ; --tw-grayscale: ; --tw-hue-rotate: ; --tw-invert: ; --tw-saturate: ; --tw-sepia: ; --tw-drop-shadow: ; --tw-backdrop-blur: ; --tw-backdrop-brightness: ; --tw-backdrop-contrast: ; --tw-backdrop-grayscale: ; --tw-backdrop-hue-rotate: ; --tw-backdrop-invert: ; --tw-backdrop-opacity: ; --tw-backdrop-saturate: ; --tw-backdrop-sepia: ; font-family: &amp;quot;Söhne Mono&amp;quot;, Monaco, &amp;quot;Andale Mono&amp;quot;, &amp;quot;Ubuntu Mono&amp;quot;, monospace; font-size: 14px; text-align: left;&quot; class=&quot;hljs-keyword&quot;&gt;with&lt;/span&gt;&lt;span style=&quot;font-family: &amp;quot;Söhne Mono&amp;quot;, Monaco, &amp;quot;Andale Mono&amp;quot;, &amp;quot;Ubuntu Mono&amp;quot;, monospace; font-size: 14px; text-align: left;&quot;&gt; Application Logic&lt;/span&gt;" style="whiteSpace=wrap;html=1;rounded=0;" parent="bYp1psGdMtTp_El-fFPe-48" vertex="1">
          <mxGeometry x="35" y="150" width="120" height="60" as="geometry" />
        </mxCell>
        <mxCell id="bYp1psGdMtTp_El-fFPe-38" value="" style="rounded=0;whiteSpace=wrap;html=1;" parent="bYp1psGdMtTp_El-fFPe-48" vertex="1">
          <mxGeometry x="35" y="320" width="360" height="180" as="geometry" />
        </mxCell>
        <mxCell id="bYp1psGdMtTp_El-fFPe-39" value="Browse Experiences API" style="rounded=0;whiteSpace=wrap;html=1;" parent="bYp1psGdMtTp_El-fFPe-48" vertex="1">
          <mxGeometry x="50" y="360" width="120" height="30" as="geometry" />
        </mxCell>
        <mxCell id="bYp1psGdMtTp_El-fFPe-40" value="&lt;font style=&quot;font-size: 11px;&quot;&gt;View&lt;span style=&quot;font-family: &amp;quot;Söhne Mono&amp;quot;, Monaco, &amp;quot;Andale Mono&amp;quot;, &amp;quot;Ubuntu Mono&amp;quot;, monospace; text-align: left;&quot;&gt; Experience Details API&lt;/span&gt;&lt;/font&gt;" style="rounded=0;whiteSpace=wrap;html=1;" parent="bYp1psGdMtTp_El-fFPe-48" vertex="1">
          <mxGeometry x="195" y="352.5" width="140" height="45" as="geometry" />
        </mxCell>
        <mxCell id="bYp1psGdMtTp_El-fFPe-41" value="&lt;font style=&quot;font-size: 12px;&quot;&gt;Add&lt;span style=&quot;font-family: &amp;quot;Söhne Mono&amp;quot;, Monaco, &amp;quot;Andale Mono&amp;quot;, &amp;quot;Ubuntu Mono&amp;quot;, monospace; text-align: left;&quot;&gt; Experience API&lt;/span&gt;&lt;/font&gt;" style="rounded=0;whiteSpace=wrap;html=1;" parent="bYp1psGdMtTp_El-fFPe-48" vertex="1">
          <mxGeometry x="220" y="430" width="120" height="30" as="geometry" />
        </mxCell>
        <mxCell id="bYp1psGdMtTp_El-fFPe-42" value="&lt;font style=&quot;font-size: 12px;&quot;&gt;User&lt;span style=&quot;font-family: &amp;quot;Söhne Mono&amp;quot;, Monaco, &amp;quot;Andale Mono&amp;quot;, &amp;quot;Ubuntu Mono&amp;quot;, monospace; text-align: left;&quot;&gt; Authentication &lt;/span&gt;&lt;span style=&quot;border: 0px solid rgb(217, 217, 227); box-sizing: border-box; --tw-border-spacing-x: 0; --tw-border-spacing-y: 0; --tw-translate-x: 0; --tw-translate-y: 0; --tw-rotate: 0; --tw-skew-x: 0; --tw-skew-y: 0; --tw-scale-x: 1; --tw-scale-y: 1; --tw-pan-x: ; --tw-pan-y: ; --tw-pinch-zoom: ; --tw-scroll-snap-strictness: proximity; --tw-gradient-from-position: ; --tw-gradient-via-position: ; --tw-gradient-to-position: ; --tw-ordinal: ; --tw-slashed-zero: ; --tw-numeric-figure: ; --tw-numeric-spacing: ; --tw-numeric-fraction: ; --tw-ring-inset: ; --tw-ring-offset-width: 0px; --tw-ring-offset-color: #fff; --tw-ring-color: rgba(69,89,164,.5); --tw-ring-offset-shadow: 0 0 transparent; --tw-ring-shadow: 0 0 transparent; --tw-shadow: 0 0 transparent; --tw-shadow-colored: 0 0 transparent; --tw-blur: ; --tw-brightness: ; --tw-contrast: ; --tw-grayscale: ; --tw-hue-rotate: ; --tw-invert: ; --tw-saturate: ; --tw-sepia: ; --tw-drop-shadow: ; --tw-backdrop-blur: ; --tw-backdrop-brightness: ; --tw-backdrop-contrast: ; --tw-backdrop-grayscale: ; --tw-backdrop-hue-rotate: ; --tw-backdrop-invert: ; --tw-backdrop-opacity: ; --tw-backdrop-saturate: ; --tw-backdrop-sepia: ; font-family: &amp;quot;Söhne Mono&amp;quot;, Monaco, &amp;quot;Andale Mono&amp;quot;, &amp;quot;Ubuntu Mono&amp;quot;, monospace; text-align: left;&quot; class=&quot;hljs-keyword&quot;&gt;and&lt;/span&gt;&lt;span style=&quot;font-family: &amp;quot;Söhne Mono&amp;quot;, Monaco, &amp;quot;Andale Mono&amp;quot;, &amp;quot;Ubuntu Mono&amp;quot;, monospace; text-align: left;&quot;&gt; Registration API&lt;/span&gt;&lt;/font&gt;" style="rounded=0;whiteSpace=wrap;html=1;" parent="bYp1psGdMtTp_El-fFPe-48" vertex="1">
          <mxGeometry x="50" y="420" width="150" height="50" as="geometry" />
        </mxCell>
        <mxCell id="bYp1psGdMtTp_El-fFPe-44" value="Communicates &lt;span style=&quot;border: 0px solid rgb(217, 217, 227); box-sizing: border-box; --tw-border-spacing-x: 0; --tw-border-spacing-y: 0; --tw-translate-x: 0; --tw-translate-y: 0; --tw-rotate: 0; --tw-skew-x: 0; --tw-skew-y: 0; --tw-scale-x: 1; --tw-scale-y: 1; --tw-pan-x: ; --tw-pan-y: ; --tw-pinch-zoom: ; --tw-scroll-snap-strictness: proximity; --tw-gradient-from-position: ; --tw-gradient-via-position: ; --tw-gradient-to-position: ; --tw-ordinal: ; --tw-slashed-zero: ; --tw-numeric-figure: ; --tw-numeric-spacing: ; --tw-numeric-fraction: ; --tw-ring-inset: ; --tw-ring-offset-width: 0px; --tw-ring-offset-color: #fff; --tw-ring-color: rgba(69,89,164,.5); --tw-ring-offset-shadow: 0 0 transparent; --tw-ring-shadow: 0 0 transparent; --tw-shadow: 0 0 transparent; --tw-shadow-colored: 0 0 transparent; --tw-blur: ; --tw-brightness: ; --tw-contrast: ; --tw-grayscale: ; --tw-hue-rotate: ; --tw-invert: ; --tw-saturate: ; --tw-sepia: ; --tw-drop-shadow: ; --tw-backdrop-blur: ; --tw-backdrop-brightness: ; --tw-backdrop-contrast: ; --tw-backdrop-grayscale: ; --tw-backdrop-hue-rotate: ; --tw-backdrop-invert: ; --tw-backdrop-opacity: ; --tw-backdrop-saturate: ; --tw-backdrop-sepia: ; font-family: &amp;quot;Söhne Mono&amp;quot;, Monaco, &amp;quot;Andale Mono&amp;quot;, &amp;quot;Ubuntu Mono&amp;quot;, monospace; font-size: 14px; text-align: left;&quot; class=&quot;hljs-keyword&quot;&gt;with&lt;/span&gt;&lt;span style=&quot;font-family: &amp;quot;Söhne Mono&amp;quot;, Monaco, &amp;quot;Andale Mono&amp;quot;, &amp;quot;Ubuntu Mono&amp;quot;, monospace; font-size: 14px; text-align: left;&quot;&gt; Data Storage &lt;/span&gt;&lt;span style=&quot;border: 0px solid rgb(217, 217, 227); box-sizing: border-box; --tw-border-spacing-x: 0; --tw-border-spacing-y: 0; --tw-translate-x: 0; --tw-translate-y: 0; --tw-rotate: 0; --tw-skew-x: 0; --tw-skew-y: 0; --tw-scale-x: 1; --tw-scale-y: 1; --tw-pan-x: ; --tw-pan-y: ; --tw-pinch-zoom: ; --tw-scroll-snap-strictness: proximity; --tw-gradient-from-position: ; --tw-gradient-via-position: ; --tw-gradient-to-position: ; --tw-ordinal: ; --tw-slashed-zero: ; --tw-numeric-figure: ; --tw-numeric-spacing: ; --tw-numeric-fraction: ; --tw-ring-inset: ; --tw-ring-offset-width: 0px; --tw-ring-offset-color: #fff; --tw-ring-color: rgba(69,89,164,.5); --tw-ring-offset-shadow: 0 0 transparent; --tw-ring-shadow: 0 0 transparent; --tw-shadow: 0 0 transparent; --tw-shadow-colored: 0 0 transparent; --tw-blur: ; --tw-brightness: ; --tw-contrast: ; --tw-grayscale: ; --tw-hue-rotate: ; --tw-invert: ; --tw-saturate: ; --tw-sepia: ; --tw-drop-shadow: ; --tw-backdrop-blur: ; --tw-backdrop-brightness: ; --tw-backdrop-contrast: ; --tw-backdrop-grayscale: ; --tw-backdrop-hue-rotate: ; --tw-backdrop-invert: ; --tw-backdrop-opacity: ; --tw-backdrop-saturate: ; --tw-backdrop-sepia: ; font-family: &amp;quot;Söhne Mono&amp;quot;, Monaco, &amp;quot;Andale Mono&amp;quot;, &amp;quot;Ubuntu Mono&amp;quot;, monospace; font-size: 14px; text-align: left;&quot; class=&quot;hljs-operator&quot;&gt;&amp;amp;&lt;/span&gt;&lt;span style=&quot;font-family: &amp;quot;Söhne Mono&amp;quot;, Monaco, &amp;quot;Andale Mono&amp;quot;, &amp;quot;Ubuntu Mono&amp;quot;, monospace; font-size: 14px; text-align: left;&quot;&gt; Retrieval &lt;/span&gt;" style="whiteSpace=wrap;html=1;rounded=0;" parent="bYp1psGdMtTp_El-fFPe-48" vertex="1">
          <mxGeometry x="205" y="150" width="130" height="60" as="geometry" />
        </mxCell>
        <mxCell id="bYp1psGdMtTp_El-fFPe-47" value="API Endpoints" style="rounded=1;whiteSpace=wrap;html=1;" parent="bYp1psGdMtTp_El-fFPe-48" vertex="1">
          <mxGeometry x="130" y="287" width="120" height="33" as="geometry" />
        </mxCell>
        <mxCell id="bYp1psGdMtTp_El-fFPe-49" value="BackEnd" style="rounded=1;whiteSpace=wrap;html=1;" parent="bYp1psGdMtTp_El-fFPe-50" vertex="1">
          <mxGeometry x="145" width="120" height="40" as="geometry" />
        </mxCell>
        <mxCell id="bYp1psGdMtTp_El-fFPe-51" value="" style="group" parent="1" vertex="1" connectable="0">
          <mxGeometry x="720" y="40" width="580" height="600" as="geometry" />
        </mxCell>
        <mxCell id="bYp1psGdMtTp_El-fFPe-13" value="" style="whiteSpace=wrap;html=1;aspect=fixed;" parent="bYp1psGdMtTp_El-fFPe-51" vertex="1">
          <mxGeometry y="20" width="580" height="580" as="geometry" />
        </mxCell>
        <mxCell id="bYp1psGdMtTp_El-fFPe-23" value="" style="rounded=0;whiteSpace=wrap;html=1;" parent="bYp1psGdMtTp_El-fFPe-51" vertex="1">
          <mxGeometry x="20" y="120" width="360" height="220" as="geometry" />
        </mxCell>
        <mxCell id="bYp1psGdMtTp_El-fFPe-17" value="Render user interface" style="rounded=1;whiteSpace=wrap;html=1;" parent="bYp1psGdMtTp_El-fFPe-51" vertex="1">
          <mxGeometry x="20" y="50" width="120" height="60" as="geometry" />
        </mxCell>
        <mxCell id="bYp1psGdMtTp_El-fFPe-18" value="Handles user interaction" style="rounded=0;whiteSpace=wrap;html=1;" parent="bYp1psGdMtTp_El-fFPe-51" vertex="1">
          <mxGeometry x="40" y="140" width="120" height="60" as="geometry" />
        </mxCell>
        <mxCell id="bYp1psGdMtTp_El-fFPe-19" value="Form Validation" style="whiteSpace=wrap;html=1;rounded=0;" parent="bYp1psGdMtTp_El-fFPe-51" vertex="1">
          <mxGeometry x="215" y="160" width="120" height="60" as="geometry" />
        </mxCell>
        <mxCell id="bYp1psGdMtTp_El-fFPe-21" value="User Feedback" style="whiteSpace=wrap;html=1;rounded=0;" parent="bYp1psGdMtTp_El-fFPe-51" vertex="1">
          <mxGeometry x="40" y="250" width="120" height="60" as="geometry" />
        </mxCell>
        <mxCell id="bYp1psGdMtTp_El-fFPe-25" value="" style="rounded=0;whiteSpace=wrap;html=1;" parent="bYp1psGdMtTp_El-fFPe-51" vertex="1">
          <mxGeometry x="20" y="370" width="360" height="120" as="geometry" />
        </mxCell>
        <mxCell id="bYp1psGdMtTp_El-fFPe-27" value="Browse Experiences UI Components" style="rounded=0;whiteSpace=wrap;html=1;" parent="bYp1psGdMtTp_El-fFPe-51" vertex="1">
          <mxGeometry x="50" y="380" width="120" height="30" as="geometry" />
        </mxCell>
        <mxCell id="bYp1psGdMtTp_El-fFPe-28" value="&lt;font style=&quot;font-size: 11px;&quot;&gt;View&lt;span style=&quot;font-family: &amp;quot;Söhne Mono&amp;quot;, Monaco, &amp;quot;Andale Mono&amp;quot;, &amp;quot;Ubuntu Mono&amp;quot;, monospace; text-align: left;&quot;&gt; Experience Details UI Components &lt;/span&gt;&lt;/font&gt;" style="rounded=0;whiteSpace=wrap;html=1;" parent="bYp1psGdMtTp_El-fFPe-51" vertex="1">
          <mxGeometry x="50" y="435" width="140" height="45" as="geometry" />
        </mxCell>
        <mxCell id="bYp1psGdMtTp_El-fFPe-30" value="&lt;font style=&quot;font-size: 12px;&quot;&gt;Add&lt;span style=&quot;font-family: &amp;quot;Söhne Mono&amp;quot;, Monaco, &amp;quot;Andale Mono&amp;quot;, &amp;quot;Ubuntu Mono&amp;quot;, monospace; text-align: left;&quot;&gt; Experience UI Components&lt;/span&gt;&lt;/font&gt;" style="rounded=0;whiteSpace=wrap;html=1;" parent="bYp1psGdMtTp_El-fFPe-51" vertex="1">
          <mxGeometry x="215" y="380" width="120" height="30" as="geometry" />
        </mxCell>
        <mxCell id="bYp1psGdMtTp_El-fFPe-31" value="&lt;font style=&quot;font-size: 12px;&quot;&gt;User&lt;span style=&quot;font-family: &amp;quot;Söhne Mono&amp;quot;, Monaco, &amp;quot;Andale Mono&amp;quot;, &amp;quot;Ubuntu Mono&amp;quot;, monospace; text-align: left;&quot;&gt; Authentication &lt;/span&gt;&lt;span style=&quot;border: 0px solid rgb(217, 217, 227); box-sizing: border-box; --tw-border-spacing-x: 0; --tw-border-spacing-y: 0; --tw-translate-x: 0; --tw-translate-y: 0; --tw-rotate: 0; --tw-skew-x: 0; --tw-skew-y: 0; --tw-scale-x: 1; --tw-scale-y: 1; --tw-pan-x: ; --tw-pan-y: ; --tw-pinch-zoom: ; --tw-scroll-snap-strictness: proximity; --tw-gradient-from-position: ; --tw-gradient-via-position: ; --tw-gradient-to-position: ; --tw-ordinal: ; --tw-slashed-zero: ; --tw-numeric-figure: ; --tw-numeric-spacing: ; --tw-numeric-fraction: ; --tw-ring-inset: ; --tw-ring-offset-width: 0px; --tw-ring-offset-color: #fff; --tw-ring-color: rgba(69,89,164,.5); --tw-ring-offset-shadow: 0 0 transparent; --tw-ring-shadow: 0 0 transparent; --tw-shadow: 0 0 transparent; --tw-shadow-colored: 0 0 transparent; --tw-blur: ; --tw-brightness: ; --tw-contrast: ; --tw-grayscale: ; --tw-hue-rotate: ; --tw-invert: ; --tw-saturate: ; --tw-sepia: ; --tw-drop-shadow: ; --tw-backdrop-blur: ; --tw-backdrop-brightness: ; --tw-backdrop-contrast: ; --tw-backdrop-grayscale: ; --tw-backdrop-hue-rotate: ; --tw-backdrop-invert: ; --tw-backdrop-opacity: ; --tw-backdrop-saturate: ; --tw-backdrop-sepia: ; font-family: &amp;quot;Söhne Mono&amp;quot;, Monaco, &amp;quot;Andale Mono&amp;quot;, &amp;quot;Ubuntu Mono&amp;quot;, monospace; text-align: left;&quot; class=&quot;hljs-keyword&quot;&gt;and&lt;/span&gt;&lt;span style=&quot;font-family: &amp;quot;Söhne Mono&amp;quot;, Monaco, &amp;quot;Andale Mono&amp;quot;, &amp;quot;Ubuntu Mono&amp;quot;, monospace; text-align: left;&quot;&gt; Registration UI Components&lt;/span&gt;&lt;/font&gt;" style="rounded=0;whiteSpace=wrap;html=1;" parent="bYp1psGdMtTp_El-fFPe-51" vertex="1">
          <mxGeometry x="215" y="430" width="150" height="50" as="geometry" />
        </mxCell>
        <mxCell id="bYp1psGdMtTp_El-fFPe-45" value="&lt;b&gt;&lt;i&gt;Frontend&lt;/i&gt;&lt;/b&gt;" style="rounded=1;whiteSpace=wrap;html=1;" parent="bYp1psGdMtTp_El-fFPe-51" vertex="1">
          <mxGeometry x="220" width="120" height="20" as="geometry" />
        </mxCell>
        <mxCell id="bYp1psGdMtTp_El-fFPe-52" value="" style="group" parent="1" vertex="1" connectable="0">
          <mxGeometry x="70" y="40" width="400" height="435" as="geometry" />
        </mxCell>
        <mxCell id="bYp1psGdMtTp_El-fFPe-1" value="User Interface" style="rounded=0;whiteSpace=wrap;html=1;" parent="bYp1psGdMtTp_El-fFPe-52" vertex="1">
          <mxGeometry x="114" width="120" height="35" as="geometry" />
        </mxCell>
        <mxCell id="bYp1psGdMtTp_El-fFPe-2" value="" style="whiteSpace=wrap;html=1;aspect=fixed;" parent="bYp1psGdMtTp_El-fFPe-52" vertex="1">
          <mxGeometry y="35" width="400" height="400" as="geometry" />
        </mxCell>
        <mxCell id="bYp1psGdMtTp_El-fFPe-4" value="Browse Experiences" style="rounded=0;whiteSpace=wrap;html=1;" parent="bYp1psGdMtTp_El-fFPe-52" vertex="1">
          <mxGeometry x="20" y="80" width="120" height="60" as="geometry" />
        </mxCell>
        <mxCell id="bYp1psGdMtTp_El-fFPe-5" value="View Experience Details" style="whiteSpace=wrap;html=1;rounded=0;" parent="bYp1psGdMtTp_El-fFPe-52" vertex="1">
          <mxGeometry x="270" y="80" width="120" height="60" as="geometry" />
        </mxCell>
        <mxCell id="bYp1psGdMtTp_El-fFPe-6" value="" style="edgeStyle=orthogonalEdgeStyle;rounded=0;orthogonalLoop=1;jettySize=auto;html=1;" parent="bYp1psGdMtTp_El-fFPe-52" source="bYp1psGdMtTp_El-fFPe-4" target="bYp1psGdMtTp_El-fFPe-5" edge="1">
          <mxGeometry relative="1" as="geometry" />
        </mxCell>
        <mxCell id="bYp1psGdMtTp_El-fFPe-7" value="Add Experience" style="whiteSpace=wrap;html=1;rounded=0;" parent="bYp1psGdMtTp_El-fFPe-52" vertex="1">
          <mxGeometry x="270" y="230" width="120" height="60" as="geometry" />
        </mxCell>
        <mxCell id="bYp1psGdMtTp_El-fFPe-8" value="" style="edgeStyle=orthogonalEdgeStyle;rounded=0;orthogonalLoop=1;jettySize=auto;html=1;" parent="bYp1psGdMtTp_El-fFPe-52" source="bYp1psGdMtTp_El-fFPe-5" target="bYp1psGdMtTp_El-fFPe-7" edge="1">
          <mxGeometry relative="1" as="geometry" />
        </mxCell>
        <mxCell id="bYp1psGdMtTp_El-fFPe-9" value="User Authentication and Registration" style="whiteSpace=wrap;html=1;rounded=0;" parent="bYp1psGdMtTp_El-fFPe-52" vertex="1">
          <mxGeometry x="10" y="230" width="120" height="60" as="geometry" />
        </mxCell>
        <mxCell id="bYp1psGdMtTp_El-fFPe-10" value="" style="edgeStyle=orthogonalEdgeStyle;rounded=0;orthogonalLoop=1;jettySize=auto;html=1;" parent="bYp1psGdMtTp_El-fFPe-52" source="bYp1psGdMtTp_El-fFPe-7" target="bYp1psGdMtTp_El-fFPe-9" edge="1">
          <mxGeometry relative="1" as="geometry" />
        </mxCell>
        <mxCell id="bYp1psGdMtTp_El-fFPe-56" value="" style="endArrow=classic;startArrow=classic;html=1;rounded=0;" parent="1" edge="1">
          <mxGeometry width="50" height="50" relative="1" as="geometry">
            <mxPoint x="470" y="290" as="sourcePoint" />
            <mxPoint x="720" y="290" as="targetPoint" />
          </mxGeometry>
        </mxCell>
        <mxCell id="bYp1psGdMtTp_El-fFPe-58" value="" style="whiteSpace=wrap;html=1;aspect=fixed;" parent="1" vertex="1">
          <mxGeometry x="40" y="1320" width="1280" height="1280" as="geometry" />
        </mxCell>
        <mxCell id="bYp1psGdMtTp_El-fFPe-71" value="" style="group" parent="1" vertex="1" connectable="0">
          <mxGeometry x="690" y="715" width="250" height="380" as="geometry" />
        </mxCell>
        <mxCell id="bYp1psGdMtTp_El-fFPe-59" value="API" style="rounded=1;whiteSpace=wrap;html=1;" parent="bYp1psGdMtTp_El-fFPe-71" vertex="1">
          <mxGeometry x="30" width="120" height="60" as="geometry" />
        </mxCell>
        <mxCell id="bYp1psGdMtTp_El-fFPe-61" value="" style="whiteSpace=wrap;html=1;aspect=fixed;" parent="bYp1psGdMtTp_El-fFPe-71" vertex="1">
          <mxGeometry y="130" width="250" height="250" as="geometry" />
        </mxCell>
        <mxCell id="bYp1psGdMtTp_El-fFPe-62" value="Defines endpoints for communication" style="rounded=0;whiteSpace=wrap;html=1;" parent="bYp1psGdMtTp_El-fFPe-71" vertex="1">
          <mxGeometry x="20" y="160" width="120" height="60" as="geometry" />
        </mxCell>
        <mxCell id="bYp1psGdMtTp_El-fFPe-63" value="Handle requests and send responses" style="rounded=0;whiteSpace=wrap;html=1;" parent="bYp1psGdMtTp_El-fFPe-71" vertex="1">
          <mxGeometry x="30" y="230" width="120" height="60" as="geometry" />
        </mxCell>
        <mxCell id="bYp1psGdMtTp_El-fFPe-64" value="Orchestrates interaction between components" style="rounded=0;whiteSpace=wrap;html=1;" parent="bYp1psGdMtTp_El-fFPe-71" vertex="1">
          <mxGeometry x="30" y="300" width="120" height="60" as="geometry" />
        </mxCell>
        <mxCell id="bYp1psGdMtTp_El-fFPe-72" value="" style="group" parent="1" vertex="1" connectable="0">
          <mxGeometry x="1020" y="740" width="270" height="330" as="geometry" />
        </mxCell>
        <mxCell id="bYp1psGdMtTp_El-fFPe-67" value="" style="whiteSpace=wrap;html=1;aspect=fixed;" parent="bYp1psGdMtTp_El-fFPe-72" vertex="1">
          <mxGeometry y="60" width="270" height="270" as="geometry" />
        </mxCell>
        <mxCell id="bYp1psGdMtTp_El-fFPe-68" value="Browse experience API" style="rounded=1;whiteSpace=wrap;html=1;" parent="bYp1psGdMtTp_El-fFPe-72" vertex="1">
          <mxGeometry x="50" width="120" height="60" as="geometry" />
        </mxCell>
        <mxCell id="bYp1psGdMtTp_El-fFPe-69" value="GET/experiences" style="rounded=0;whiteSpace=wrap;html=1;" parent="bYp1psGdMtTp_El-fFPe-72" vertex="1">
          <mxGeometry x="25" y="80" width="120" height="60" as="geometry" />
        </mxCell>
        <mxCell id="bYp1psGdMtTp_El-fFPe-70" value="GET/experiences/(experienceId)" style="rounded=0;html=1;align=center;labelPosition=center;verticalLabelPosition=middle;verticalAlign=middle;whiteSpace=wrap;" parent="bYp1psGdMtTp_El-fFPe-72" vertex="1">
          <mxGeometry x="25" y="150" width="205" height="60" as="geometry" />
        </mxCell>
        <mxCell id="bYp1psGdMtTp_El-fFPe-77" value="" style="group" parent="1" vertex="1" connectable="0">
          <mxGeometry x="710" y="1110" width="90" height="130" as="geometry" />
        </mxCell>
        <mxCell id="bYp1psGdMtTp_El-fFPe-73" value="" style="whiteSpace=wrap;html=1;aspect=fixed;" parent="bYp1psGdMtTp_El-fFPe-77" vertex="1">
          <mxGeometry y="40" width="90" height="90" as="geometry" />
        </mxCell>
        <mxCell id="bYp1psGdMtTp_El-fFPe-74" value="Add Experience API" style="rounded=0;whiteSpace=wrap;html=1;" parent="bYp1psGdMtTp_El-fFPe-77" vertex="1">
          <mxGeometry x="20" width="60" height="40" as="geometry" />
        </mxCell>
        <mxCell id="bYp1psGdMtTp_El-fFPe-75" value="&lt;font style=&quot;font-size: 10px;&quot;&gt;Post/Experiences&lt;/font&gt;" style="rounded=1;whiteSpace=wrap;html=1;" parent="bYp1psGdMtTp_El-fFPe-77" vertex="1">
          <mxGeometry y="50" width="90" height="30" as="geometry" />
        </mxCell>
        <mxCell id="bYp1psGdMtTp_El-fFPe-76" style="edgeStyle=orthogonalEdgeStyle;rounded=0;orthogonalLoop=1;jettySize=auto;html=1;exitX=0.5;exitY=1;exitDx=0;exitDy=0;" parent="bYp1psGdMtTp_El-fFPe-77" source="bYp1psGdMtTp_El-fFPe-73" target="bYp1psGdMtTp_El-fFPe-73" edge="1">
          <mxGeometry relative="1" as="geometry" />
        </mxCell>
      </root>
    </mxGraphModel>
  </diagram>
</mxfile>
